<mxfile host="app.diagrams.net" agent="Mozilla/5.0 (Windows NT 10.0; Win64; x64) AppleWebKit/537.36 (KHTML, like Gecko) Chrome/127.0.0.0 Safari/537.36" version="24.7.7">
  <diagram id="C5RBs43oDa-KdzZeNtuy" name="Page-1">
    <mxGraphModel dx="630" dy="548" grid="1" gridSize="10" guides="1" tooltips="1" connect="1" arrows="1" fold="1" page="1" pageScale="1" pageWidth="827" pageHeight="1169" math="0" shadow="0">
      <root>
        <mxCell id="WIyWlLk6GJQsqaUBKTNV-0" />
        <mxCell id="WIyWlLk6GJQsqaUBKTNV-1" parent="WIyWlLk6GJQsqaUBKTNV-0" />
        <mxCell id="WIyWlLk6GJQsqaUBKTNV-2" value="" style="rounded=0;html=1;jettySize=auto;orthogonalLoop=1;fontSize=11;endArrow=block;endFill=0;endSize=8;strokeWidth=1;shadow=0;labelBackgroundColor=none;edgeStyle=orthogonalEdgeStyle;entryX=0.5;entryY=0;entryDx=0;entryDy=0;" parent="WIyWlLk6GJQsqaUBKTNV-1" source="WIyWlLk6GJQsqaUBKTNV-3" target="Ftk-kEIaQZuiMvqW-5VB-16" edge="1">
          <mxGeometry relative="1" as="geometry">
            <mxPoint x="414" y="248.9999999999999" as="targetPoint" />
          </mxGeometry>
        </mxCell>
        <mxCell id="WIyWlLk6GJQsqaUBKTNV-3" value="Load Model" style="rounded=1;whiteSpace=wrap;html=1;fontSize=12;glass=0;strokeWidth=1;shadow=0;" parent="WIyWlLk6GJQsqaUBKTNV-1" vertex="1">
          <mxGeometry x="354" y="159" width="120" height="40" as="geometry" />
        </mxCell>
        <mxCell id="Ftk-kEIaQZuiMvqW-5VB-2" value="Predict Model" style="rounded=1;whiteSpace=wrap;html=1;fontSize=12;glass=0;strokeWidth=1;shadow=0;" parent="WIyWlLk6GJQsqaUBKTNV-1" vertex="1">
          <mxGeometry x="514" y="159" width="120" height="40" as="geometry" />
        </mxCell>
        <mxCell id="Ftk-kEIaQZuiMvqW-5VB-6" value="" style="rounded=0;html=1;jettySize=auto;orthogonalLoop=1;fontSize=11;endArrow=block;endFill=0;endSize=8;strokeWidth=1;shadow=0;labelBackgroundColor=none;edgeStyle=orthogonalEdgeStyle;exitX=0;exitY=0.5;exitDx=0;exitDy=0;entryX=1;entryY=0.5;entryDx=0;entryDy=0;" parent="WIyWlLk6GJQsqaUBKTNV-1" source="Ftk-kEIaQZuiMvqW-5VB-2" target="WIyWlLk6GJQsqaUBKTNV-3" edge="1">
          <mxGeometry relative="1" as="geometry">
            <mxPoint x="424" y="209" as="sourcePoint" />
            <mxPoint x="424" y="259" as="targetPoint" />
          </mxGeometry>
        </mxCell>
        <mxCell id="Ftk-kEIaQZuiMvqW-5VB-16" value="Load Prepared Data" style="rounded=1;whiteSpace=wrap;html=1;fontSize=12;glass=0;strokeWidth=1;shadow=0;" parent="WIyWlLk6GJQsqaUBKTNV-1" vertex="1">
          <mxGeometry x="354" y="249" width="120" height="40" as="geometry" />
        </mxCell>
        <mxCell id="Ftk-kEIaQZuiMvqW-5VB-17" value="Start" style="rounded=1;whiteSpace=wrap;html=1;fontSize=12;glass=0;strokeWidth=1;shadow=0;" parent="WIyWlLk6GJQsqaUBKTNV-1" vertex="1">
          <mxGeometry x="354" y="69" width="120" height="40" as="geometry" />
        </mxCell>
        <mxCell id="Ftk-kEIaQZuiMvqW-5VB-18" value="" style="rounded=0;html=1;jettySize=auto;orthogonalLoop=1;fontSize=11;endArrow=block;endFill=0;endSize=8;strokeWidth=1;shadow=0;labelBackgroundColor=none;edgeStyle=orthogonalEdgeStyle;entryX=0.5;entryY=0;entryDx=0;entryDy=0;exitX=0.5;exitY=1;exitDx=0;exitDy=0;" parent="WIyWlLk6GJQsqaUBKTNV-1" source="Ftk-kEIaQZuiMvqW-5VB-17" target="WIyWlLk6GJQsqaUBKTNV-3" edge="1">
          <mxGeometry relative="1" as="geometry">
            <mxPoint x="413.66" y="109" as="sourcePoint" />
            <mxPoint x="413.66" y="159" as="targetPoint" />
          </mxGeometry>
        </mxCell>
        <mxCell id="Ftk-kEIaQZuiMvqW-5VB-19" value="Train Model" style="rounded=1;whiteSpace=wrap;html=1;fontSize=12;glass=0;strokeWidth=1;shadow=0;" parent="WIyWlLk6GJQsqaUBKTNV-1" vertex="1">
          <mxGeometry x="514" y="69" width="120" height="40" as="geometry" />
        </mxCell>
        <mxCell id="Ftk-kEIaQZuiMvqW-5VB-20" value="" style="rounded=0;html=1;jettySize=auto;orthogonalLoop=1;fontSize=11;endArrow=block;endFill=0;endSize=8;strokeWidth=1;shadow=0;labelBackgroundColor=none;edgeStyle=orthogonalEdgeStyle;entryX=0.5;entryY=0;entryDx=0;entryDy=0;exitX=0.5;exitY=1;exitDx=0;exitDy=0;" parent="WIyWlLk6GJQsqaUBKTNV-1" source="Ftk-kEIaQZuiMvqW-5VB-19" target="Ftk-kEIaQZuiMvqW-5VB-2" edge="1">
          <mxGeometry relative="1" as="geometry">
            <mxPoint x="424" y="119" as="sourcePoint" />
            <mxPoint x="424" y="169" as="targetPoint" />
          </mxGeometry>
        </mxCell>
        <mxCell id="Ftk-kEIaQZuiMvqW-5VB-22" value="" style="rounded=0;html=1;jettySize=auto;orthogonalLoop=1;fontSize=11;endArrow=block;endFill=0;endSize=8;strokeWidth=1;shadow=0;labelBackgroundColor=none;edgeStyle=orthogonalEdgeStyle;entryX=0.5;entryY=0;entryDx=0;entryDy=0;exitX=0.5;exitY=1;exitDx=0;exitDy=0;" parent="WIyWlLk6GJQsqaUBKTNV-1" source="Ftk-kEIaQZuiMvqW-5VB-16" target="Ftk-kEIaQZuiMvqW-5VB-23" edge="1">
          <mxGeometry relative="1" as="geometry">
            <mxPoint x="414" y="289" as="sourcePoint" />
            <mxPoint x="414" y="338.9999999999999" as="targetPoint" />
          </mxGeometry>
        </mxCell>
        <mxCell id="Ftk-kEIaQZuiMvqW-5VB-23" value="Start Web-App" style="rounded=1;whiteSpace=wrap;html=1;fontSize=12;glass=0;strokeWidth=1;shadow=0;" parent="WIyWlLk6GJQsqaUBKTNV-1" vertex="1">
          <mxGeometry x="354" y="339" width="120" height="40" as="geometry" />
        </mxCell>
        <mxCell id="Ftk-kEIaQZuiMvqW-5VB-24" value="data.json" style="rounded=1;whiteSpace=wrap;html=1;fontSize=12;glass=0;strokeWidth=1;shadow=0;" parent="WIyWlLk6GJQsqaUBKTNV-1" vertex="1">
          <mxGeometry x="184" y="249" width="120" height="40" as="geometry" />
        </mxCell>
        <mxCell id="Ftk-kEIaQZuiMvqW-5VB-25" value="" style="rounded=0;html=1;jettySize=auto;orthogonalLoop=1;fontSize=11;endArrow=block;endFill=0;endSize=8;strokeWidth=1;shadow=0;labelBackgroundColor=none;edgeStyle=orthogonalEdgeStyle;exitX=1;exitY=0.5;exitDx=0;exitDy=0;entryX=0;entryY=0.5;entryDx=0;entryDy=0;" parent="WIyWlLk6GJQsqaUBKTNV-1" source="Ftk-kEIaQZuiMvqW-5VB-24" target="Ftk-kEIaQZuiMvqW-5VB-16" edge="1">
          <mxGeometry relative="1" as="geometry">
            <mxPoint x="524" y="189" as="sourcePoint" />
            <mxPoint x="484" y="189" as="targetPoint" />
          </mxGeometry>
        </mxCell>
        <mxCell id="Ftk-kEIaQZuiMvqW-5VB-26" value="" style="rounded=0;html=1;jettySize=auto;orthogonalLoop=1;fontSize=11;endArrow=block;endFill=0;endSize=8;strokeWidth=1;shadow=0;labelBackgroundColor=none;edgeStyle=orthogonalEdgeStyle;entryX=0.5;entryY=0;entryDx=0;entryDy=0;exitX=0.5;exitY=1;exitDx=0;exitDy=0;" parent="WIyWlLk6GJQsqaUBKTNV-1" source="Ftk-kEIaQZuiMvqW-5VB-44" target="Ftk-kEIaQZuiMvqW-5VB-27" edge="1">
          <mxGeometry relative="1" as="geometry">
            <mxPoint x="414" y="468.9999999999999" as="sourcePoint" />
            <mxPoint x="414" y="518.9999999999999" as="targetPoint" />
          </mxGeometry>
        </mxCell>
        <mxCell id="Ftk-kEIaQZuiMvqW-5VB-27" value="User Input Picture" style="rounded=1;whiteSpace=wrap;html=1;fontSize=12;glass=0;strokeWidth=1;shadow=0;" parent="WIyWlLk6GJQsqaUBKTNV-1" vertex="1">
          <mxGeometry x="354" y="519" width="120" height="40" as="geometry" />
        </mxCell>
        <mxCell id="Ftk-kEIaQZuiMvqW-5VB-28" value="wait input" style="rounded=0;html=1;jettySize=auto;orthogonalLoop=1;fontSize=11;endArrow=block;endFill=0;endSize=8;strokeWidth=1;shadow=0;labelBackgroundColor=none;edgeStyle=orthogonalEdgeStyle;exitX=1;exitY=1;exitDx=0;exitDy=0;entryX=1;entryY=0;entryDx=0;entryDy=0;" parent="WIyWlLk6GJQsqaUBKTNV-1" source="Ftk-kEIaQZuiMvqW-5VB-27" target="Ftk-kEIaQZuiMvqW-5VB-27" edge="1">
          <mxGeometry y="-30" relative="1" as="geometry">
            <mxPoint x="484" y="559" as="sourcePoint" />
            <mxPoint x="484" y="509" as="targetPoint" />
            <Array as="points">
              <mxPoint x="524" y="559" />
              <mxPoint x="524" y="519" />
            </Array>
            <mxPoint as="offset" />
          </mxGeometry>
        </mxCell>
        <mxCell id="Ftk-kEIaQZuiMvqW-5VB-29" value="" style="rounded=0;html=1;jettySize=auto;orthogonalLoop=1;fontSize=11;endArrow=block;endFill=0;endSize=8;strokeWidth=1;shadow=0;labelBackgroundColor=none;edgeStyle=orthogonalEdgeStyle;entryX=0.5;entryY=0;entryDx=0;entryDy=0;exitX=0.5;exitY=1;exitDx=0;exitDy=0;" parent="WIyWlLk6GJQsqaUBKTNV-1" source="Ftk-kEIaQZuiMvqW-5VB-27" target="Ftk-kEIaQZuiMvqW-5VB-33" edge="1">
          <mxGeometry relative="1" as="geometry">
            <mxPoint x="854" y="628.9999999999999" as="sourcePoint" />
            <mxPoint x="854" y="678.9999999999999" as="targetPoint" />
          </mxGeometry>
        </mxCell>
        <mxCell id="Ftk-kEIaQZuiMvqW-5VB-30" value="Predict" style="rounded=1;whiteSpace=wrap;html=1;fontSize=12;glass=0;strokeWidth=1;shadow=0;" parent="WIyWlLk6GJQsqaUBKTNV-1" vertex="1">
          <mxGeometry x="354" y="879" width="120" height="40" as="geometry" />
        </mxCell>
        <mxCell id="Ftk-kEIaQZuiMvqW-5VB-31" value="No" style="rounded=0;html=1;jettySize=auto;orthogonalLoop=1;fontSize=11;endArrow=block;endFill=0;endSize=8;strokeWidth=1;shadow=0;labelBackgroundColor=none;edgeStyle=orthogonalEdgeStyle;entryX=0;entryY=0.5;entryDx=0;entryDy=0;" parent="WIyWlLk6GJQsqaUBKTNV-1" source="Ftk-kEIaQZuiMvqW-5VB-33" target="Ftk-kEIaQZuiMvqW-5VB-27" edge="1">
          <mxGeometry x="-0.845" y="-10" relative="1" as="geometry">
            <mxPoint as="offset" />
            <mxPoint x="284" y="539" as="targetPoint" />
            <Array as="points">
              <mxPoint x="285" y="649" />
              <mxPoint x="285" y="539" />
            </Array>
          </mxGeometry>
        </mxCell>
        <mxCell id="Ftk-kEIaQZuiMvqW-5VB-32" value="Yes" style="edgeStyle=orthogonalEdgeStyle;rounded=0;html=1;jettySize=auto;orthogonalLoop=1;fontSize=11;endArrow=block;endFill=0;endSize=8;strokeWidth=1;shadow=0;labelBackgroundColor=none;entryX=0.5;entryY=0;entryDx=0;entryDy=0;" parent="WIyWlLk6GJQsqaUBKTNV-1" source="Ftk-kEIaQZuiMvqW-5VB-33" target="Ftk-kEIaQZuiMvqW-5VB-36" edge="1">
          <mxGeometry y="10" relative="1" as="geometry">
            <mxPoint as="offset" />
            <mxPoint x="524" y="649" as="targetPoint" />
          </mxGeometry>
        </mxCell>
        <mxCell id="Ftk-kEIaQZuiMvqW-5VB-33" value="Is Picture?" style="rhombus;whiteSpace=wrap;html=1;shadow=0;fontFamily=Helvetica;fontSize=12;align=center;strokeWidth=1;spacing=6;spacingTop=-4;" parent="WIyWlLk6GJQsqaUBKTNV-1" vertex="1">
          <mxGeometry x="364" y="609" width="100" height="80" as="geometry" />
        </mxCell>
        <mxCell id="Ftk-kEIaQZuiMvqW-5VB-36" value="Button Clicked?" style="rhombus;whiteSpace=wrap;html=1;shadow=0;fontFamily=Helvetica;fontSize=12;align=center;strokeWidth=1;spacing=6;spacingTop=-4;" parent="WIyWlLk6GJQsqaUBKTNV-1" vertex="1">
          <mxGeometry x="364" y="739" width="100" height="80" as="geometry" />
        </mxCell>
        <mxCell id="Ftk-kEIaQZuiMvqW-5VB-39" value="Yes" style="edgeStyle=orthogonalEdgeStyle;rounded=0;html=1;jettySize=auto;orthogonalLoop=1;fontSize=11;endArrow=block;endFill=0;endSize=8;strokeWidth=1;shadow=0;labelBackgroundColor=none;entryX=0.5;entryY=0;entryDx=0;entryDy=0;exitX=0.5;exitY=1;exitDx=0;exitDy=0;" parent="WIyWlLk6GJQsqaUBKTNV-1" source="Ftk-kEIaQZuiMvqW-5VB-36" target="Ftk-kEIaQZuiMvqW-5VB-30" edge="1">
          <mxGeometry y="10" relative="1" as="geometry">
            <mxPoint as="offset" />
            <mxPoint x="474" y="659" as="sourcePoint" />
            <mxPoint x="534" y="659" as="targetPoint" />
          </mxGeometry>
        </mxCell>
        <mxCell id="Ftk-kEIaQZuiMvqW-5VB-40" value="No" style="rounded=0;html=1;jettySize=auto;orthogonalLoop=1;fontSize=11;endArrow=block;endFill=0;endSize=8;strokeWidth=1;shadow=0;labelBackgroundColor=none;edgeStyle=orthogonalEdgeStyle;exitX=0;exitY=0.5;exitDx=0;exitDy=0;entryX=0;entryY=0.5;entryDx=0;entryDy=0;" parent="WIyWlLk6GJQsqaUBKTNV-1" source="Ftk-kEIaQZuiMvqW-5VB-36" target="Ftk-kEIaQZuiMvqW-5VB-27" edge="1">
          <mxGeometry x="-0.8974" y="-10" relative="1" as="geometry">
            <mxPoint as="offset" />
            <mxPoint x="364" y="779" as="sourcePoint" />
            <mxPoint x="285" y="529" as="targetPoint" />
            <Array as="points">
              <mxPoint x="284" y="779" />
              <mxPoint x="284" y="669" />
              <mxPoint x="285" y="669" />
              <mxPoint x="285" y="539" />
            </Array>
          </mxGeometry>
        </mxCell>
        <mxCell id="Ftk-kEIaQZuiMvqW-5VB-41" value="" style="rounded=0;html=1;jettySize=auto;orthogonalLoop=1;fontSize=11;endArrow=block;endFill=0;endSize=8;strokeWidth=1;shadow=0;labelBackgroundColor=none;edgeStyle=orthogonalEdgeStyle;entryX=0.5;entryY=0;entryDx=0;entryDy=0;exitX=0.5;exitY=1;exitDx=0;exitDy=0;" parent="WIyWlLk6GJQsqaUBKTNV-1" source="Ftk-kEIaQZuiMvqW-5VB-30" target="Ftk-kEIaQZuiMvqW-5VB-42" edge="1">
          <mxGeometry relative="1" as="geometry">
            <mxPoint x="414" y="919" as="sourcePoint" />
            <mxPoint x="414" y="968.9999999999999" as="targetPoint" />
          </mxGeometry>
        </mxCell>
        <mxCell id="Ftk-kEIaQZuiMvqW-5VB-42" value="Show Result Page" style="rounded=1;whiteSpace=wrap;html=1;fontSize=12;glass=0;strokeWidth=1;shadow=0;" parent="WIyWlLk6GJQsqaUBKTNV-1" vertex="1">
          <mxGeometry x="354" y="969" width="120" height="40" as="geometry" />
        </mxCell>
        <mxCell id="Ftk-kEIaQZuiMvqW-5VB-43" value="" style="rounded=0;html=1;jettySize=auto;orthogonalLoop=1;fontSize=11;endArrow=block;endFill=0;endSize=8;strokeWidth=1;shadow=0;labelBackgroundColor=none;edgeStyle=orthogonalEdgeStyle;entryX=0.5;entryY=0;entryDx=0;entryDy=0;exitX=0.5;exitY=1;exitDx=0;exitDy=0;" parent="WIyWlLk6GJQsqaUBKTNV-1" source="Ftk-kEIaQZuiMvqW-5VB-23" target="Ftk-kEIaQZuiMvqW-5VB-44" edge="1">
          <mxGeometry relative="1" as="geometry">
            <mxPoint x="414" y="379" as="sourcePoint" />
            <mxPoint x="414" y="428.9999999999999" as="targetPoint" />
          </mxGeometry>
        </mxCell>
        <mxCell id="Ftk-kEIaQZuiMvqW-5VB-44" value="Show First Page" style="rounded=1;whiteSpace=wrap;html=1;fontSize=12;glass=0;strokeWidth=1;shadow=0;" parent="WIyWlLk6GJQsqaUBKTNV-1" vertex="1">
          <mxGeometry x="354" y="429" width="120" height="40" as="geometry" />
        </mxCell>
        <mxCell id="Ftk-kEIaQZuiMvqW-5VB-45" value="Back Button" style="rhombus;whiteSpace=wrap;html=1;shadow=0;fontFamily=Helvetica;fontSize=12;align=center;strokeWidth=1;spacing=6;spacingTop=-4;" parent="WIyWlLk6GJQsqaUBKTNV-1" vertex="1">
          <mxGeometry x="554" y="949" width="100" height="80" as="geometry" />
        </mxCell>
        <mxCell id="Ftk-kEIaQZuiMvqW-5VB-48" value="Yes" style="rounded=0;html=1;jettySize=auto;orthogonalLoop=1;fontSize=11;endArrow=block;endFill=0;endSize=8;strokeWidth=1;shadow=0;labelBackgroundColor=none;edgeStyle=orthogonalEdgeStyle;exitX=0.5;exitY=0;exitDx=0;exitDy=0;entryX=1;entryY=0.5;entryDx=0;entryDy=0;" parent="WIyWlLk6GJQsqaUBKTNV-1" source="Ftk-kEIaQZuiMvqW-5VB-45" target="Ftk-kEIaQZuiMvqW-5VB-44" edge="1">
          <mxGeometry x="-0.9683" y="-30" relative="1" as="geometry">
            <mxPoint x="554" y="849" as="sourcePoint" />
            <mxPoint x="604" y="419" as="targetPoint" />
            <Array as="points">
              <mxPoint x="604" y="449" />
            </Array>
            <mxPoint as="offset" />
          </mxGeometry>
        </mxCell>
        <mxCell id="Ftk-kEIaQZuiMvqW-5VB-49" value="No" style="rounded=0;html=1;jettySize=auto;orthogonalLoop=1;fontSize=11;endArrow=block;endFill=0;endSize=8;strokeWidth=1;shadow=0;labelBackgroundColor=none;edgeStyle=orthogonalEdgeStyle;exitX=0.093;exitY=0.622;exitDx=0;exitDy=0;entryX=1;entryY=0.75;entryDx=0;entryDy=0;exitPerimeter=0;" parent="WIyWlLk6GJQsqaUBKTNV-1" source="Ftk-kEIaQZuiMvqW-5VB-45" target="Ftk-kEIaQZuiMvqW-5VB-42" edge="1">
          <mxGeometry x="0.1054" y="10" relative="1" as="geometry">
            <mxPoint x="554" y="999" as="sourcePoint" />
            <mxPoint x="474" y="999" as="targetPoint" />
            <Array as="points" />
            <mxPoint y="-1" as="offset" />
          </mxGeometry>
        </mxCell>
        <mxCell id="Ftk-kEIaQZuiMvqW-5VB-51" value="" style="rounded=0;html=1;jettySize=auto;orthogonalLoop=1;fontSize=11;endArrow=block;endFill=0;endSize=8;strokeWidth=1;shadow=0;labelBackgroundColor=none;edgeStyle=orthogonalEdgeStyle;exitX=1;exitY=0.25;exitDx=0;exitDy=0;" parent="WIyWlLk6GJQsqaUBKTNV-1" source="Ftk-kEIaQZuiMvqW-5VB-42" edge="1">
          <mxGeometry y="-30" relative="1" as="geometry">
            <mxPoint x="474" y="979" as="sourcePoint" />
            <mxPoint x="564" y="979" as="targetPoint" />
            <Array as="points" />
            <mxPoint as="offset" />
          </mxGeometry>
        </mxCell>
        <mxCell id="Ftk-kEIaQZuiMvqW-5VB-53" value="Change Lang" style="rhombus;whiteSpace=wrap;html=1;shadow=0;fontFamily=Helvetica;fontSize=12;align=center;strokeWidth=1;spacing=6;spacingTop=-4;" parent="WIyWlLk6GJQsqaUBKTNV-1" vertex="1">
          <mxGeometry x="174" y="949" width="100" height="80" as="geometry" />
        </mxCell>
        <mxCell id="Ftk-kEIaQZuiMvqW-5VB-54" value="No" style="rounded=0;html=1;jettySize=auto;orthogonalLoop=1;fontSize=11;endArrow=block;endFill=0;endSize=8;strokeWidth=1;shadow=0;labelBackgroundColor=none;edgeStyle=orthogonalEdgeStyle;exitX=0.093;exitY=0.622;exitDx=0;exitDy=0;entryX=1;entryY=0.75;entryDx=0;entryDy=0;exitPerimeter=0;" parent="WIyWlLk6GJQsqaUBKTNV-1" edge="1">
          <mxGeometry x="0.0078" y="-20" relative="1" as="geometry">
            <mxPoint x="264" y="998.76" as="sourcePoint" />
            <mxPoint x="353.29999999999995" y="998.5200000000002" as="targetPoint" />
            <Array as="points" />
            <mxPoint x="-20" y="19" as="offset" />
          </mxGeometry>
        </mxCell>
        <mxCell id="Ftk-kEIaQZuiMvqW-5VB-55" value="" style="rounded=0;html=1;jettySize=auto;orthogonalLoop=1;fontSize=11;endArrow=block;endFill=0;endSize=8;strokeWidth=1;shadow=0;labelBackgroundColor=none;edgeStyle=orthogonalEdgeStyle;exitX=1;exitY=0.25;exitDx=0;exitDy=0;" parent="WIyWlLk6GJQsqaUBKTNV-1" edge="1">
          <mxGeometry y="-30" relative="1" as="geometry">
            <mxPoint x="354" y="978.76" as="sourcePoint" />
            <mxPoint x="264" y="978.76" as="targetPoint" />
            <Array as="points" />
            <mxPoint as="offset" />
          </mxGeometry>
        </mxCell>
        <mxCell id="Ftk-kEIaQZuiMvqW-5VB-56" value="Yes" style="rounded=0;html=1;jettySize=auto;orthogonalLoop=1;fontSize=11;endArrow=block;endFill=0;endSize=8;strokeWidth=1;shadow=0;labelBackgroundColor=none;edgeStyle=orthogonalEdgeStyle;entryX=0;entryY=0.5;entryDx=0;entryDy=0;exitX=0.5;exitY=1;exitDx=0;exitDy=0;" parent="WIyWlLk6GJQsqaUBKTNV-1" source="Ftk-kEIaQZuiMvqW-5VB-53" target="Ftk-kEIaQZuiMvqW-5VB-58" edge="1">
          <mxGeometry x="0.1776" y="10" relative="1" as="geometry">
            <mxPoint x="223.66" y="1029" as="sourcePoint" />
            <mxPoint x="223.66" y="1079" as="targetPoint" />
            <mxPoint as="offset" />
          </mxGeometry>
        </mxCell>
        <mxCell id="Ftk-kEIaQZuiMvqW-5VB-57" value="" style="rounded=0;html=1;jettySize=auto;orthogonalLoop=1;fontSize=11;endArrow=block;endFill=0;endSize=8;strokeWidth=1;shadow=0;labelBackgroundColor=none;edgeStyle=orthogonalEdgeStyle;entryX=0.5;entryY=1;entryDx=0;entryDy=0;exitX=0.5;exitY=0;exitDx=0;exitDy=0;" parent="WIyWlLk6GJQsqaUBKTNV-1" source="Ftk-kEIaQZuiMvqW-5VB-58" target="Ftk-kEIaQZuiMvqW-5VB-42" edge="1">
          <mxGeometry relative="1" as="geometry">
            <mxPoint x="414" y="1059" as="sourcePoint" />
            <mxPoint x="414" y="1009" as="targetPoint" />
          </mxGeometry>
        </mxCell>
        <mxCell id="Ftk-kEIaQZuiMvqW-5VB-58" value="Change Data" style="rounded=1;whiteSpace=wrap;html=1;fontSize=12;glass=0;strokeWidth=1;shadow=0;" parent="WIyWlLk6GJQsqaUBKTNV-1" vertex="1">
          <mxGeometry x="354" y="1059" width="120" height="40" as="geometry" />
        </mxCell>
      </root>
    </mxGraphModel>
  </diagram>
</mxfile>
